{"title":"Miltons Secret 2016 Movies HDRip XviD AAC New +Sample ~ ☻rDX☻","uid":15968719,"size":739734532,"categoryP":"video","categoryS":"movies","magnet":"?xt=urn:btih:1f4af3ee2f410295e2a632885b77a3eb32304676&amp;dn=Miltons+Secret+2016+Movies+HDRip+XviD+AAC+New+%2BSample+%7E+%E2%98%BBrDX%E2%98%BB&amp;tr=udp%3A%2F%2Ftracker.leechers-paradise.org%3A6969&amp;tr=udp%3A%2F%2Fzer0day.ch%3A1337&amp;tr=udp%3A%2F%2Fopen.demonii.com%3A1337&amp;tr=udp%3A%2F%2Ftracker.coppersurfer.tk%3A6969&amp;tr=udp%3A%2F%2Fexodus.desync.com%3A6969","seeders":1,"leechers":3,"uploader":"basicssom","files":2,"time":1475753435,"description":"----------------------------------------------------------------\r\nMiltons Secret 2016 English Movies HDRip XviD AAC New Source with Sample ☻rDX☻\r\n\r\nSCREEN SHOTS &amp; POSTER:\r\n  \nhttp://postimage.co.nr/2016/10/court/index.htm  \nhttp://postimage.co.nr/2016/10/court/1.html  \nhttp://postimage.co.nr/2016/10/court/2.html  \nhttp://postimage.co.nr/2016/10/court/3.html  \nhttp://postimage.co.nr/2016/10/court/4.html  \nhttp://postimage.co.nr/2016/10/court/5.html  \nhttp://postimage.co.nr/2016/10/court/6.html  \nhttp://postimage.co.nr/2016/10/court/7.html  \nhttp://postimage.co.nr/2016/10/court/8.html  \nhttp://postimage.co.nr/2016/10/court/9.html  \nhttp://postimage.co.nr/2016/10/court/10.html\r\n\r\nFormat                                   : Matroska\r\nFormat version                           : Version 4 / Version 2\r\nFile size                                : 698 MiB\r\nDuration                                 : 1 h 27 min\r\nOverall bit rate                         : 1 110 kb/s\r\nMovie name                               : Miltons Secret 2016 English Movies HDRip XviD AAC New Source ☻rDX☻\r\n\r\nVideo\r\nID                                       : 1\r\nFormat                                   : AVC\r\nFormat/Info                              : Advanced Video Codec\r\nFormat profile                           :   \r\nFormat settings, CABAC                   : Yes\r\nFormat settings, ReFrames                : 5 frames\r\nCodec ID                                 : V_MPEG4/ISO/AVC\r\nDuration                                 : 1 h 27 min\r\nBit rate                                 : 926 kb/s\r\nWidth                                    : 640 pixels\r\nHeight                                   : 352 pixels\r\nDisplay aspect ratio                     : 16:9\r\nOriginal display aspect ratio            : 16:9\r\nFrame rate mode                          : Constant\r\nFrame rate                               : 23.976 FPS\r\nStandard                                 : Component\r\nColor space                              : YUV\r\nChroma subsampling                       : 4:2:0\r\nBit depth                                : 8 bits\r\nScan type                                : Progressive\r\nBits/(Pixel*Frame)                       : 0.171\r\nStream size                              : 564 MiB (81%)\r\nTitle                                    : ☻rDX☻\r\nWriting library                          : XviD\r\n\r\nAudio\r\nID                                       : 2\r\nFormat                                   : AC-3\r\nFormat/Info                              : Audio Coding 3\r\nMode extension                           : CM (complete main)\r\nFormat settings, Endianness              : Big\r\nCodec ID                                 : A_AC3\r\nDuration                                 : 1 h 27 min\r\nBit rate mode                            : Constant\r\nBit rate                                 : 192 kb/s\r\nChannel(s)                               : 2 channels\r\nChannel positions                        : Front: L R\r\nSampling rate                            : 48.0 kHz\r\nFrame rate                               : 31.250 FPS (1536 spf)\r\nCompression mode                         : Lossy\r\nStream size                              : 121 MiB (17%)\r\nTitle                                    : ☻rDX☻\r\n\r\nIMDB \nhttp://www.imdb.com/title/tt2806390/","torrent":{"xt":"urn:btih:1f4af3ee2f410295e2a632885b77a3eb32304676","amp;dn":"Miltons+Secret+2016+Movies+HDRip+XviD+AAC+New+%2BSample+%7E+%E2%98%BBrDX%E2%98%BB","amp;tr":["udp%3A%2F%2Ftracker.leechers-paradise.org%3A6969","udp%3A%2F%2Fzer0day.ch%3A1337","udp%3A%2F%2Fopen.demonii.com%3A1337","udp%3A%2F%2Ftracker.coppersurfer.tk%3A6969","udp%3A%2F%2Fexodus.desync.com%3A6969"],"infoHash":"1f4af3ee2f410295e2a632885b77a3eb32304676","infoHashBuffer":{"type":"Buffer","data":[31,74,243,238,47,65,2,149,226,166,50,136,91,119,163,235,50,48,70,118]},"announce":[],"urlList":[]}}